<?xml version="1.0" encoding="UTF-8"?>
<svg id="Layer_1" xmlns="http://www.w3.org/2000/svg" version="1.1" viewBox="0 0 500 472">
  <!-- Generator: Adobe Illustrator 29.3.1, SVG Export Plug-In . SVG Version: 2.1.0 Build 151)  -->
  <defs>
    <style>
      .st0 {
        fill: #fff;
      }
    </style>
  </defs>
  <path class="st0" d="M274.88.71c-7.23,0-14.46,1.25-20.92,3.81s-11.86,6.32-16.87,9.45c-5.01,3.09-9.59,5.4-14.27,5.59-4.72.19-10.41-1.74-17.07-3.95-6.65-2.22-14.22-4.58-22.85-4.77-17.21-.34-37.17,8.1-50.09,16.29-6.46,4.1-11.09,8.1-14.66,11.28s-6.17,5.45-8.05,6.22-3.76.58-6.65,0c-2.89-.67-6.56-1.78-11.28-2.27-9.5-.96-23.24.58-32.16,11.28-4.44,5.35-7.38,12.49-10.03,19.38-2.65,6.85-5.06,13.45-7.71,17.36-2.65,3.86-5.64,5.54-9.21,6.89s-7.67,2.27-11.76,4.53c-8.2,4.58-14.9,14.03-15.28,24.54-.19,5.25,1.25,10.41,2.75,15.09,1.49,4.72,2.94,9.02,3.23,12.25.29,3.23-.48,5.83-1.88,9.35s-3.33,7.81-4.97,13.79C1.91,188.82-.02,207.19,1.14,220.31c1.16,13.11,5.79,21.12,15.57,29.89,9.83,8.77,25.26,19.14,44.16,22.13s40.54-1.4,50.19-2.6c2.41-.29,4.05-.39,4.82-.24h.05c0,.1,0,.63-.19,1.88-.29,1.45-.82,3.47-1.45,6.03-2.41,10.27-5.74,29.02.92,45.08s23.09,28.4,43.24,32.78,43.58,1.01,57.37-3.28c6.89-2.12,11.33-4.48,14.75-6.41s5.74-3.28,8.73-3.9c5.98-1.21,16.58.87,27.09-.92,10.51-1.78,20.15-7.38,25.31-12.25,2.36-2.22,3.66-4.15,4.39-5.06,1.01.92,3.09,3.42,5.54,6.75,2.51,3.47,5.5,7.76,8.63,12.29,6.27,9.02,13.45,19.24,25.45,25.79,12,6.56,28.2,9.26,42.95,9.4,14.75.14,28.25-2.31,39.92-9.11,11.71-6.85,21.36-17.84,27.38-29.22,6.03-11.38,8.29-22.95,8.15-30.57-.1-3.81-.72-6.51-.72-7.76,0-.63.1-.77.24-1.01s.58-.63,1.69-1.16c2.22-1.01,7.04-2.27,12.44-4.68s11.47-6.12,16.58-12.39c10.22-12.53,16.1-34.13,16.44-50.86.34-16.78-5.25-28.35-10.37-35.43-2.56-3.52-4.97-5.93-6.51-7.86s-2.27-3.18-2.22-5.21c0-2.02,1.01-5.4,2.07-9.35s2.07-8.63,1.83-13.79c-.53-10.32-6.07-21.45-14.32-27.82-4.15-3.18-8.87-4.92-13.02-6.65-4.19-1.74-7.71-3.42-10.03-6.03s-3.86-6.75-5.5-11.76-3.37-10.85-6.41-16.58c-6.12-11.52-17.07-22.18-28.68-28.25-11.67-6.07-23.33-7.33-32.3-12.34s-16.44-14.46-25.74-18.99c-9.26-4.48-18.03-3.28-25.74-7.18-7.67-3.86-15.76-13.84-28.3-19.04-6.27-2.6-13.4-3.91-20.63-3.91h-.05.02ZM274.88,5.77c6.65,0,13.21,1.16,18.75,3.47,11.04,4.58,18.66,14.17,27.96,18.85,9.26,4.68,18.08,3.47,25.79,7.23,7.67,3.71,15.28,13.16,25.45,18.85s21.79,6.85,32.45,12.39c10.65,5.54,21.07,15.67,26.61,26.13,2.75,5.21,4.44,10.7,6.07,15.81,1.69,5.11,3.28,9.88,6.51,13.55,3.23,3.66,7.57,5.59,11.86,7.33s8.53,3.37,11.91,5.98c6.8,5.25,11.96,15.48,12.39,24.1.24,4.34-.67,8.44-1.69,12.25s-2.22,7.23-2.22,10.61,1.49,6.07,3.33,8.39c1.83,2.31,4.1,4.48,6.36,7.67,4.63,6.36,9.74,16.78,9.45,32.4-.29,15.62-6.36,36.83-15.33,47.82-4.48,5.5-9.79,8.77-14.75,10.99-4.92,2.22-9.35,3.28-12.49,4.68-1.54.72-2.8,1.54-3.66,2.75s-1.16,2.65-1.16,3.86c0,2.51.63,4.68.72,7.91.14,6.46-1.98,17.5-7.57,28.11s-14.8,20.97-25.5,27.24-23.19,8.58-37.36,8.44-29.79-2.89-40.64-8.77c-10.85-5.93-17.5-15.28-23.77-24.25-3.13-4.48-6.12-8.82-8.73-12.39-2.6-3.57-4.63-6.22-6.46-7.81-.92-.82-2.07-1.54-3.57-1.4s-2.41,1.06-3.04,1.78c-1.25,1.45-2.17,3.09-4.29,5.06-4.24,4-13.5,9.4-22.76,10.99s-19.38-.63-27.24.92c-3.95.77-6.8,2.56-10.17,4.44s-7.33,4-13.79,6.03c-12.92,4-36.01,7.28-54.81,3.13s-33.8-15.67-39.72-29.84c-5.93-14.17-2.99-32.11-.67-42.04.58-2.46,1.11-4.48,1.45-6.17s.67-3.13.05-4.82c-.29-.87-.92-1.69-1.74-2.17-.77-.48-1.64-.72-2.46-.82-1.69-.24-3.52-.05-6.07.24-10.17,1.25-31.24,5.4-48.79,2.6-17.55-2.8-32.3-12.58-41.61-20.92-9.35-8.34-12.87-14.37-13.93-26.61-1.06-12.25.82-30.57,3.86-41.75,3.04-11.18,3.33-9.59,4.77-13.26,1.45-3.71,2.56-7.28,2.22-11.57-.39-4.29-2.02-8.73-3.42-13.31-1.45-4.58-2.65-9.21-2.51-13.45.29-8.44,6.12-16.68,12.73-20.34,3.28-1.83,7.09-2.7,11.14-4.24,4-1.54,8.24-3.91,11.57-8.73s5.64-11.62,8.24-18.37,5.5-13.5,9.21-17.93c7.42-8.87,19.38-10.37,27.82-9.5,4.24.43,7.52,1.45,10.7,2.17s6.41,1.16,9.69-.19,5.93-3.95,9.5-7.14c3.52-3.13,7.86-6.94,13.98-10.8,12.25-7.71,31.87-15.81,47.29-15.52,7.71.14,14.75,2.31,21.36,4.53,6.6,2.17,12.73,4.44,18.85,4.19,6.17-.24,11.47-3.13,16.68-6.36,5.21-3.18,10.37-6.75,16.1-9.06,5.74-2.27,12.44-3.42,19.04-3.37h0l.05.05v-.04Z"/>
  <path class="st0" d="M299.61,323.67l-7.18-.24c8.05,26.23,14.03,56.21,35.96,86.15,10.85,14.8,24.97,30.28,37.36,42.04,6.17,5.88,11.96,10.9,16.68,14.46,2.36,1.78,4.48,3.23,6.36,4.24,1.83,1.01,3.33,1.74,5.16,1.74s2.02-.34,2.8-1.06,1.11-1.69,1.25-2.51c.24-1.64-.1-3.18-.63-4.97-1.06-3.62-3.13-8.29-5.64-13.64-5.01-10.65-11.76-23.72-15.19-33.55-6.85-19.53-1.3-31.77,4.29-39.77l-4.1-2.84c-6.12,8.77-12.25,23.29-4.92,44.26,3.66,10.41,10.46,23.53,15.43,34.04,2.46,5.25,4.48,9.88,5.35,12.87.24.92.24,1.21.29,1.74-.48-.14-.72-.14-1.69-.67-1.54-.87-3.52-2.17-5.79-3.86-4.48-3.37-10.17-8.24-16.25-14.08-12.2-11.62-26.18-26.9-36.74-41.36-20.97-28.68-24.54-56.21-32.78-82.97h-.05l.03-.02Z"/>
  <path class="st0" d="M29.2,107.4c0,1.59-.63,3.13-1.78,4.29s-2.65,1.78-4.29,1.78-3.13-.63-4.29-1.78c-1.11-1.16-1.78-2.65-1.78-4.29,0-3.33,2.7-6.03,6.03-6.03s6.03,2.7,6.03,6.03h.1-.02Z"/>
  <path class="st0" d="M149.77,110.53c0,1.59-.63,3.13-1.78,4.29s-2.65,1.78-4.29,1.78c-3.33,0-6.03-2.7-6.03-6.03s2.7-6.03,6.03-6.03,3.13.63,4.29,1.78,1.78,2.65,1.78,4.29h0v-.1.02Z"/>
  <path class="st0" d="M143.26,206.57c0,3.33-2.7,6.03-6.03,6.03s-6.03-2.7-6.03-6.03,2.7-6.03,6.03-6.03,6.03,2.7,6.03,6.03h0Z"/>
  <path class="st0" d="M68.39,185.79c0,1.59-.63,3.13-1.78,4.29s-2.65,1.78-4.29,1.78c-3.33,0-6.03-2.7-6.03-6.03s2.7-6.03,6.03-6.03c1.59,0,3.13.63,4.29,1.78s1.78,2.65,1.78,4.29h0v-.1.02Z"/>
  <path class="st0" d="M243.35,140.23c0,1.59-.63,3.13-1.78,4.29-1.16,1.16-2.65,1.78-4.29,1.78-3.33,0-6.03-2.7-6.03-6.03s2.7-6.03,6.03-6.03,3.13.63,4.29,1.78c1.16,1.16,1.78,2.65,1.78,4.29h0v-.1.02Z"/>
  <path class="st0" d="M214.47,199.62c0,1.59-.63,3.13-1.78,4.29-1.16,1.16-2.65,1.78-4.29,1.78-3.33,0-6.03-2.7-6.03-6.03s2.7-6.03,6.03-6.03,3.13.63,4.29,1.78c1.16,1.16,1.78,2.65,1.78,4.29h0v-.1.02Z"/>
  <path class="st0" d="M239.3,264.32c0,3.33-2.7,6.03-6.03,6.03s-6.03-2.7-6.03-6.03.63-3.13,1.78-4.29,2.65-1.78,4.29-1.78,3.13.63,4.29,1.78c1.16,1.11,1.78,2.65,1.78,4.29h-.1.02Z"/>
  <path class="st0" d="M174.6,322.51c0,3.33-2.7,6.03-6.03,6.03s-3.13-.63-4.29-1.78c-1.16-1.11-1.78-2.65-1.78-4.29s.63-3.13,1.78-4.29,2.65-1.78,4.29-1.78c3.33,0,6.03,2.7,6.03,6.03h0v.1-.02Z"/>
  <path class="st0" d="M347.53,254.15c0,1.59-.63,3.13-1.78,4.29s-2.65,1.78-4.29,1.78c-3.33,0-6.03-2.7-6.03-6.03s2.7-6.03,6.03-6.03,3.13.63,4.29,1.78,1.78,2.65,1.78,4.29h0v-.1.02Z"/>
  <path class="st0" d="M431.32,176.43c0,1.59-.63,3.13-1.78,4.29-1.11,1.16-2.65,1.78-4.29,1.78-3.33,0-6.03-2.7-6.03-6.03s2.7-6.03,6.03-6.03,3.13.63,4.29,1.78,1.78,2.65,1.78,4.29h0v-.1.02Z"/>
  <path class="st0" d="M351.19,148.33c0,3.33-2.7,6.03-6.03,6.03s-6.03-2.7-6.03-6.03.63-3.13,1.78-4.29c1.11-1.16,2.65-1.78,4.29-1.78s3.13.63,4.29,1.78c1.11,1.16,1.78,2.65,1.78,4.29h-.1.02Z"/>
  <path class="st0" d="M333.26,81.61c0,1.59-.63,3.13-1.78,4.29s-2.65,1.78-4.29,1.78c-3.33,0-6.03-2.7-6.03-6.03s2.7-6.03,6.03-6.03,3.13.63,4.29,1.78c1.11,1.16,1.78,2.65,1.78,4.29h0v-.1.02Z"/>
  <path class="st0" d="M252.31,60.44c0,3.33-2.7,6.03-6.03,6.03s-6.03-2.7-6.03-6.03.63-3.13,1.78-4.29,2.65-1.78,4.29-1.78,3.13.63,4.29,1.78c1.11,1.11,1.78,2.65,1.78,4.29h-.1.02Z"/>
  <path class="st0" d="M194.12,17.34c0,1.59-.63,3.13-1.78,4.29-1.16,1.11-2.65,1.78-4.29,1.78s-3.13-.63-4.29-1.78-1.78-2.65-1.78-4.29c0-3.33,2.7-6.03,6.03-6.03s6.03,2.7,6.03,6.03h.1-.02Z"/>
  <path class="st0" d="M452.48,270.44c0,3.33-2.7,6.03-6.03,6.03s-6.03-2.7-6.03-6.03.63-3.13,1.78-4.29,2.65-1.78,4.29-1.78,3.13.63,4.29,1.78,1.78,2.65,1.78,4.29h-.1.02Z"/>
  <path class="st0" d="M387.78,340.01c0,3.33-2.7,6.03-6.03,6.03s-6.03-2.7-6.03-6.03,2.7-6.03,6.03-6.03,6.03,2.7,6.03,6.03h0Z"/>
  <path class="st0" d="M306.84,324.15c0,3.33-2.7,6.03-6.03,6.03s-6.03-2.7-6.03-6.03,2.7-6.03,6.03-6.03,6.03,2.7,6.03,6.03h0Z"/>
  <path class="st0" d="M346.27,375.01c0,1.59-.63,3.13-1.78,4.29s-2.65,1.78-4.29,1.78c-3.33,0-6.03-2.7-6.03-6.03s2.7-6.03,6.03-6.03,3.13.63,4.29,1.78,1.78,2.65,1.78,4.29h0v-.1.02Z"/>
  <path class="st0" d="M365.85,425.44c0,3.33-2.7,6.03-6.03,6.03s-6.03-2.7-6.03-6.03,2.7-6.03,6.03-6.03,6.03,2.7,6.03,6.03h0Z"/>
  <path class="st0" d="M450.07,329.4c0,3.33-2.7,6.03-6.03,6.03s-3.13-.63-4.29-1.78-1.78-2.65-1.78-4.29.63-3.13,1.78-4.29,2.65-1.78,4.29-1.78c3.33,0,6.03,2.7,6.03,6.03h0v.1-.02Z"/>
  <path class="st0" d="M495.87,207.43c0,1.59-.63,3.13-1.78,4.29-1.11,1.16-2.65,1.78-4.29,1.78-3.33,0-6.03-2.7-6.03-6.03s2.7-6.03,6.03-6.03,3.13.63,4.29,1.78c1.16,1.16,1.78,2.65,1.78,4.29h0v-.1.02Z"/>
  <path class="st0" d="M423.6,76.74c0,3.33-2.7,6.03-6.03,6.03s-6.03-2.7-6.03-6.03,2.7-6.03,6.03-6.03,6.03,2.7,6.03,6.03h0Z"/>
  <path class="st0" d="M310.89,24.67c0,3.33-2.7,6.03-6.03,6.03s-6.03-2.7-6.03-6.03.63-3.13,1.78-4.29,2.65-1.78,4.29-1.78,3.13.63,4.29,1.78,1.78,2.65,1.78,4.29h-.1.02Z"/>
  <path class="st0" d="M306.02,191.91c0,1.59-.63,3.13-1.78,4.29-1.11,1.16-2.65,1.78-4.29,1.78s-3.13-.63-4.29-1.78-1.78-2.65-1.78-4.29c0-3.33,2.7-6.03,6.03-6.03s6.03,2.7,6.03,6.03h.1-.02Z"/>
  <path class="st0" d="M55.76,263.12c0,1.59-.63,3.13-1.78,4.29s-2.65,1.78-4.29,1.78-3.13-.63-4.29-1.78-1.78-2.65-1.78-4.29c0-3.33,2.7-6.03,6.03-6.03s6.03,2.7,6.03,6.03h.1-.02Z"/>
  <path class="st0" d="M113.13,64.11c0,1.59-.63,3.13-1.78,4.29s-2.65,1.78-4.29,1.78c-3.33,0-6.03-2.7-6.03-6.03s2.7-6.03,6.03-6.03,3.13.63,4.29,1.78,1.78,2.65,1.78,4.29h0v-.1.02Z"/>
  <path class="st0" d="M188.05,16.91c-.43,0-.58.53-.24.77l58.19,43.15c.14.1.34.1.48,0l58.58-35.82c.39-.24.24-.77-.19-.82l-116.76-7.33h-.05v.05h0ZM189.5,17.87l113.92,7.14-57.18,34.95-56.79-42.09h.05Z"/>
  <path class="st0" d="M304.81,24.24c-.29,0-.48.34-.39.58l22.37,56.98c.05.19.24.29.43.29l90.35-4.87c.43,0,.58-.63.14-.82l-112.71-52.07h-.19v-.1h0ZM305.63,25.49l110.16,50.91-88.27,4.77-21.89-55.68h0Z"/>
  <path class="st0" d="M304.86,24.24c-.1,0-.14,0-.24.05l-58.58,35.82c-.34.19-.24.67.1.82l80.99,21.16c.34.1.63-.24.53-.58l-22.37-56.98c-.05-.14-.24-.29-.39-.29h-.05,0ZM304.62,25.3l21.89,55.68-79.16-20.68s57.27-35,57.27-35Z"/>
  <path class="st0" d="M188.1,16.91c-.1,0-.14,0-.24.05l-80.99,46.81c-.24.14-.29.43-.14.63l36.64,46.38c.19.24.58.19.72-.1l44.35-93.19c.14-.29-.05-.63-.39-.63h0s.05.05.05.05ZM187.09,18.4l-43.44,91.31-35.87-45.46,79.35-45.85h-.05,0Z"/>
  <path class="st0" d="M188.05,16.91c-.14,0-.29.1-.39.24l-44.35,93.19c-.19.39.24.77.58.58l102.54-50.04c.29-.14.34-.53.05-.72l-58.19-43.15c-.1-.05-.19-.1-.29-.1,0,0,.05,0,.05,0ZM188.24,18.02l57.18,42.38-100.76,49.17,43.58-91.6h0v.05Z"/>
  <path class="st0" d="M246.24,60.06h-.19l-102.54,50.04c-.34.19-.29.67.05.82l93.58,29.7c.24.1.53-.1.58-.39l8.97-79.74c0-.24-.19-.48-.43-.48h0v.05h-.02ZM245.76,61.21l-8.82,78.44-92.03-29.22,100.86-49.22h-.01Z"/>
  <path class="st0" d="M417.53,76.3l-90.35,4.87c-.29,0-.48.29-.39.53l17.89,66.72c.1.34.48.43.72.19l72.41-71.59c.29-.29.1-.77-.34-.72h.06ZM416.42,77.22l-71.06,70.29-17.6-65.47,88.66-4.77h0v-.05Z"/>
  <path class="st0" d="M246.24,60.06c-.19,0-.39.19-.43.39l-8.97,79.74c0,.39.39.63.67.43l89.91-58.58c.34-.19.24-.67-.14-.77l-80.99-21.16h-.14l.1-.05h-.01ZM246.62,61.02l79.55,20.78-88.32,57.56,8.77-78.34h0Z"/>
  <path class="st0" d="M107.11,63.67s-.14,0-.19.05L22.93,107.01c-.39.19-.24.82.19.82l120.57,3.13c.39,0,.58-.43.34-.72l-36.64-46.38c-.1-.1-.19-.14-.34-.14h0l.05-.05h0ZM106.96,64.68l35.82,45.37-117.97-3.04,82.15-42.33h0Z"/>
  <path class="st0" d="M327.23,81.17c-.1,0-.14,0-.24.05l-89.91,58.58c-.34.24-.19.77.19.82l107.85,8.15c.29,0,.53-.24.43-.53l-17.89-66.72c0-.19-.24-.34-.43-.34h0ZM326.94,82.33l17.6,65.57-105.92-8,88.32-57.56h0Z"/>
  <path class="st0" d="M417.58,76.3c-.1,0-.24,0-.29.14l-72.41,71.59c-.24.24-.14.63.14.72l80.17,28.06c.29.1.58-.14.58-.43l-7.71-99.7c0-.24-.19-.39-.43-.39h-.05ZM417.19,77.7l7.62,98.11-78.87-27.62,71.25-70.48h0Z"/>
  <path class="st0" d="M23.12,106.96c-.29,0-.48.34-.34.63l39.19,78.39c.14.24.48.34.67.14l81.38-75.26c.29-.29.1-.72-.29-.77l-120.57-3.13h-.05.01ZM23.85,107.83l118.79,3.09-80.17,74.15L23.85,107.83h0Z"/>
  <path class="st0" d="M237.27,139.79c-.39,0-.58.53-.24.77l62.67,51.68c.14.14.43.14.58,0l45.17-43.53c.29-.24.1-.72-.29-.72l-107.85-8.15h0l-.05-.05h.01ZM238.62,140.76l105.48,7.95-44.21,42.62-61.32-50.57h.05,0Z"/>
  <path class="st0" d="M143.75,110.1c-.34,0-.58.39-.34.67l64.7,89.09c.19.24.58.24.72-.05l28.88-59.39c.1-.24,0-.53-.24-.58l-93.58-29.7h-.14v-.05h0ZM144.85,111.3l91.84,29.17-28.35,58.29-63.49-87.45h0Z"/>
  <path class="st0" d="M417.58,76.3c-.24,0-.43.19-.43.48l7.71,99.7c0,.14.1.29.24.34l61.81,33.31c.39.19.77-.19.58-.58l-69.52-133.01c-.1-.14-.24-.24-.39-.24h0ZM418.16,78.81l67.88,129.88-60.36-32.54-7.57-97.34h.05Z"/>
  <path class="st0" d="M143.7,110.1c-.1,0-.19.05-.29.1l-81.38,75.26c-.24.24-.14.67.19.72l74.87,20.73c.24.05.53-.1.53-.39l6.51-96.03c0-.24-.19-.48-.48-.48h0l.05.1h0ZM143.21,111.59l-6.41,94.39-73.62-20.39,79.98-74h.05Z"/>
  <path class="st0" d="M143.7,110.1c-.24,0-.39.19-.43.39l-6.51,96.03c0,.24.19.48.48.48l71.21-6.94c.34,0,.48-.43.29-.67l-64.7-89.09c-.1-.1-.24-.19-.39-.19h.05,0ZM144.08,111.74l63.54,87.5-69.95,6.8,6.41-94.3h0Z"/>
  <path class="st0" d="M237.32,139.79c-.14,0-.29.1-.39.24l-28.88,59.39c-.14.29.1.67.43.63l91.55-7.71c.39,0,.53-.53.24-.77l-62.67-51.68c-.1-.05-.19-.1-.29-.1h.01ZM237.47,140.9l61.42,50.62-89.72,7.57,28.3-58.24h0v.05h0Z"/>
  <path class="st0" d="M345.12,147.94c-.1,0-.24,0-.29.1l-45.17,43.53c-.14.14-.19.39-.05.53l41.51,62.24c.24.34.77.19.82-.24l3.66-105.77c0-.24-.19-.43-.43-.43h0l-.05.05h0ZM344.68,149.39l-3.57,103.36-40.54-60.84,44.11-42.52h0Z"/>
  <path class="st0" d="M345.12,147.94c-.24,0-.39.19-.39.43l-3.66,105.77c0,.39.43.58.72.34l83.84-77.71c.24-.24.14-.63-.14-.72l-80.17-28.06h-.19v-.05h0ZM345.55,148.95l78.92,27.62-82.54,76.51,3.62-104.13h0Z"/>
  <path class="st0" d="M299.95,191.48l-91.55,7.71c-.29,0-.48.34-.39.58l24.83,64.7c.1.29.48.39.72.14l66.72-72.41c.29-.29,0-.77-.34-.72h0ZM298.88,192.39l-65.52,71.11-24.35-63.49,89.86-7.57v-.05h.01Z"/>
  <path class="st0" d="M425.29,176c-.29,0-.48.24-.43.53l21.16,94.01c.1.39.58.48.77.14l40.64-60.65c.14-.19.1-.48-.14-.63l-61.81-33.31s-.14-.05-.19-.05h0v-.05h0ZM425.92,177.25l60.55,32.64-39.82,59.44-20.73-92.08h0Z"/>
  <path class="st0" d="M62.32,185.35c-.19,0-.39.14-.43.39l-12.63,77.33c-.05.39.34.63.67.43l87.5-56.55c.29-.19.24-.67-.1-.77l-74.87-20.73h-.14v-.1h0ZM62.7,186.32l73.47,20.34-85.86,55.49,12.39-75.88h0v.05h0Z"/>
  <path class="st0" d="M425.29,176c-.1,0-.24,0-.34.1l-83.84,77.71c-.24.24-.14.67.24.72l105,16.29c.29,0,.58-.24.48-.53l-21.16-94.01c0-.19-.19-.34-.39-.34h0v.05h.01ZM425.05,177.25l20.83,92.61-103.46-16.05,82.58-76.61h0l.05.05h0Z"/>
  <path class="st0" d="M299.95,191.48c-.1,0-.24.05-.34.14l-66.72,72.41c-.24.29,0,.77.39.72l108.23-10.17c.34,0,.48-.39.34-.67l-41.51-62.24c-.1-.1-.24-.19-.39-.19h0ZM299.9,192.58l40.79,61.18-106.4,9.98,65.61-71.21h0v.05h0Z"/>
  <path class="st0" d="M208.44,199.19h0l-71.21,6.94c-.43,0-.53.58-.19.82l96.03,57.76c.34.19.77-.14.63-.53l-24.83-64.7c-.05-.19-.24-.29-.39-.29h-.05,0ZM208.15,200.11l24.25,63.2-93.82-56.45,69.57-6.75h0Z"/>
  <path class="st0" d="M137.19,206.08c-.29,0-.48.29-.39.53l31.34,115.94c.1.34.48.43.72.19l64.7-58.19c.24-.19.19-.53-.05-.67l-96.03-57.8c-.1,0-.14-.05-.24-.05h0l-.05.05h0ZM137.91,207.48l94.59,56.94-63.73,57.32-30.85-114.26h0Z"/>
  <path class="st0" d="M341.45,253.71h0l-108.23,10.17c-.39,0-.53.48-.24.77l67.54,59.83c.19.19.53.14.67-.1l40.69-70c.14-.29,0-.67-.39-.67h-.05.01ZM340.68,254.68l-40.01,68.8-66.39-58.82,106.4-9.98h0Z"/>
  <path class="st0" d="M23.17,106.96c-.29,0-.48.24-.43.53l26.56,155.72c.1.48.77.48.87,0l12.63-77.33v-.24L23.56,107.2c-.1-.14-.24-.24-.39-.24h0ZM24.09,110.19l37.84,75.64-12.15,74.63L24.09,110.19h0Z"/>
  <path class="st0" d="M341.45,253.71c-.34,0-.48.34-.39.63l40.26,85.86c.14.29.48.34.72.1l64.7-69.57c.24-.24.1-.67-.24-.72l-105-16.29h-.1.05ZM342.23,254.68l103.36,16.01-63.69,68.51-39.68-84.51h0Z"/>
  <path class="st0" d="M446.45,269.96c-.1,0-.24,0-.34.14l-64.7,69.57c-.29.29,0,.77.39.72l62.24-10.61c.19,0,.34-.19.39-.39l2.46-59.01c0-.24-.19-.43-.43-.43h-.01ZM445.97,271.55l-2.36,57.47-60.65,10.32,63.01-67.78h0Z"/>
  <path class="st0" d="M341.5,253.71c-.14,0-.29.1-.39.24l-40.69,70c-.14.24,0,.58.29.63l80.99,15.86c.34.05.63-.29.48-.63l-40.3-85.86c-.05-.14-.24-.24-.39-.24h.01ZM341.45,255.06l39.58,84.32-79.55-15.57,39.97-68.75h0Z"/>
  <path class="st0" d="M300.76,323.72c-.39,0-.58.43-.34.72l39.48,50.86c.14.19.43.24.63.05l41.51-35c.29-.24.14-.67-.19-.77l-80.99-15.86h-.1ZM301.83,324.78l78.97,15.48-40.45,34.13-38.47-49.61h-.05Z"/>
  <path class="st0" d="M232.35,263.5c-.1,0-.24,0-.29.1l-64.7,58.19c-.29.24-.1.77.29.77l132.24,1.64c.39,0,.58-.48.29-.77l-67.54-59.83c-.1-.05-.19-.1-.29-.1h0ZM232.35,264.51l66.39,58.77-129.97-1.59,63.59-57.18h0Z"/>
  <path class="st0" d="M381.76,339.58c-.1,0-.19,0-.29.1l-41.51,35c-.14.1-.19.34-.14.48l19.53,50.48c.14.39.72.39.82,0l21.98-85.43c.05-.29-.14-.53-.39-.53h0v-.1h0ZM380.99,341.22l-21.31,82.82-18.95-48.88,40.21-33.89h0l.05-.05h0Z"/>
</svg>