<?xml version="1.0" encoding="UTF-8"?>
<svg id="Layer_1" xmlns="http://www.w3.org/2000/svg" version="1.1" viewBox="0 0 501 472">
  <!-- Generator: Adobe Illustrator 29.3.1, SVG Export Plug-In . SVG Version: 2.1.0 Build 151)  -->
  <defs>
    <style>
      .st0 {
        fill: #010101;
      }
    </style>
  </defs>
  <path class="st0" d="M274.88.49c-7.21,0-14.47,1.26-20.9,3.8-6.44,2.54-11.85,6.34-16.87,9.43-5.03,3.09-9.6,5.41-14.28,5.61-4.7.2-10.43-1.74-17.07-3.94-6.64-2.2-14.23-4.6-22.83-4.77-17.21-.32-37.17,8.11-50.07,16.27-6.45,4.08-11.07,8.1-14.64,11.28s-6.17,5.46-8.07,6.24c-1.9.79-3.78.6-6.66-.05-2.88-.66-6.56-1.78-11.29-2.27-9.48-.97-23.26.6-32.17,11.27-4.46,5.34-7.38,12.49-10.04,19.36-2.65,6.86-5.04,13.46-7.7,17.34-2.66,3.88-5.66,5.54-9.22,6.91s-7.68,2.26-11.77,4.55c-8.19,4.57-14.91,14.03-15.26,24.55-.17,5.26,1.27,10.39,2.74,15.09,1.48,4.7,2.96,9.02,3.23,12.24.27,3.22-.5,5.82-1.88,9.33-1.37,3.51-3.33,7.79-4.96,13.8C1.91,188.53.01,206.88,1.15,220.01c1.14,13.13,5.77,21.13,15.59,29.91,9.83,8.77,25.26,19.13,44.16,22.15,18.9,3.01,40.55-1.4,50.18-2.59,2.41-.29,4.06-.36,4.81-.27.07,0,.02,0,.07.01-.01.11.04.62-.22,1.87-.3,1.45-.84,3.47-1.44,6.04-2.4,10.26-5.76,29,.91,45.06s23.09,28.37,43.24,32.8,43.59.99,57.35-3.26c6.88-2.13,11.33-4.5,14.77-6.44,3.43-1.93,5.73-3.3,8.71-3.89,5.96-1.19,16.58.88,27.11-.91,10.52-1.79,20.15-7.39,25.33-12.25,2.36-2.22,3.65-4.15,4.37-5.07,1.03.93,3.09,3.42,5.53,6.76,2.52,3.45,5.5,7.76,8.65,12.27,6.29,9.02,13.45,19.23,25.46,25.79,12.01,6.56,28.21,9.24,42.96,9.4,14.75.15,28.23-2.29,39.93-9.13,11.7-6.83,21.37-17.83,27.39-29.22,6.02-11.39,8.32-22.95,8.15-30.55-.09-3.8-.74-6.49-.73-7.75.01-.63.07-.78.23-1,.16-.22.6-.64,1.71-1.14,2.21-1.01,7.06-2.26,12.45-4.67,5.39-2.41,11.47-6.11,16.57-12.37,10.2-12.52,16.1-34.1,16.43-50.87.32-16.77-5.25-28.36-10.37-35.43-2.56-3.53-4.97-5.93-6.53-7.88-1.56-1.95-2.25-3.19-2.23-5.22.01-2.05,1-5.39,2.05-9.36s2.09-8.63,1.84-13.79c-.51-10.32-6.06-21.47-14.33-27.81-4.16-3.19-8.86-4.93-13.04-6.65-4.17-1.72-7.74-3.42-10.01-6.02-2.29-2.61-3.88-6.77-5.51-11.79s-3.36-10.84-6.41-16.61c-6.1-11.54-17.05-22.17-28.71-28.24-11.66-6.07-23.32-7.33-32.3-12.34-8.97-5.01-16.42-14.48-25.73-18.99-9.26-4.48-18.03-3.3-25.73-7.18-7.67-3.87-15.78-13.83-28.29-19.02-6.25-2.59-13.42-3.89-20.63-3.9h0ZM274.86,5.55c6.63,0,13.2,1.16,18.73,3.46,11.05,4.59,18.66,14.18,27.95,18.86,9.27,4.67,18.1,3.49,25.8,7.22,7.65,3.7,15.28,13.17,25.48,18.85,10.19,5.69,21.77,6.86,32.42,12.41,10.65,5.54,21.07,15.69,26.59,26.14,2.76,5.23,4.41,10.72,6.08,15.82,1.66,5.1,3.3,9.88,6.51,13.53,3.22,3.67,7.59,5.57,11.86,7.34s8.52,3.39,11.9,5.99c6.82,5.24,11.95,15.47,12.38,24.1.22,4.32-.67,8.45-1.68,12.26-1.01,3.81-2.2,7.24-2.22,10.6-.02,3.38,1.48,6.06,3.33,8.37,1.85,2.3,4.07,4.49,6.38,7.68,4.62,6.38,9.72,16.78,9.42,32.4-.3,15.62-6.34,36.81-15.3,47.81-4.48,5.5-9.8,8.75-14.73,10.97-4.94,2.21-9.36,3.25-12.49,4.69-1.57.71-2.82,1.57-3.68,2.76-.86,1.2-1.16,2.63-1.18,3.88-.03,2.49.65,4.69.72,7.91.14,6.45-1.96,17.5-7.57,28.11-5.6,10.6-14.78,20.99-25.5,27.25-10.71,6.25-23.2,8.59-37.36,8.45-14.16-.15-29.79-2.87-40.62-8.78-10.83-5.91-17.48-15.26-23.76-24.27-3.14-4.5-6.13-8.83-8.71-12.36s-4.63-6.21-6.47-7.8c-.92-.8-2.06-1.55-3.56-1.42s-2.41,1.06-3.03,1.76c-1.23,1.43-2.17,3.07-4.3,5.07-4.25,4-13.47,9.4-22.74,10.97-9.27,1.58-19.38-.64-27.25.93-3.93.78-6.82,2.55-10.18,4.43s-7.32,4.02-13.79,6.02c-12.94,4-36.01,7.28-54.81,3.16-18.8-4.13-33.81-15.64-39.7-29.83-5.9-14.19-2.98-32.1-.66-42.01.58-2.48,1.11-4.46,1.47-6.16s.66-3.13.07-4.82c-.29-.84-.94-1.69-1.73-2.19-.78-.5-1.61-.72-2.45-.82-1.67-.22-3.53-.05-6.07.26-10.17,1.26-31.24,5.4-48.78,2.61-17.55-2.8-32.28-12.6-41.61-20.94-9.34-8.33-12.88-14.38-13.94-26.61-1.06-12.23.81-30.54,3.85-41.75,1.52-5.61,3.33-9.57,4.78-13.28,1.45-3.71,2.56-7.29,2.21-11.56-.36-4.27-2.01-8.73-3.45-13.31-1.43-4.58-2.66-9.23-2.52-13.43.28-8.42,6.12-16.68,12.7-20.36,3.29-1.84,7.11-2.7,11.12-4.24,4.02-1.54,8.24-3.92,11.55-8.75,3.31-4.83,5.63-11.59,8.24-18.37s5.5-13.51,9.21-17.96c7.42-8.88,19.4-10.37,27.83-9.5,4.22.43,7.53,1.45,10.7,2.16s6.39,1.15,9.67-.21c3.28-1.35,5.95-3.98,9.49-7.12,3.53-3.15,7.88-6.92,13.99-10.79,12.22-7.73,31.85-15.79,47.31-15.5,7.73.14,14.77,2.33,21.35,4.51,6.59,2.19,12.72,4.45,18.86,4.19,6.16-.26,11.48-3.15,16.68-6.34,5.2-3.2,10.36-6.77,16.09-9.04,5.75-2.27,12.43-3.4,19.06-3.38h.03Z"/>
  <path class="st0" d="M299.6,323.43l-7.19-.26c8.05,26.21,14.03,56.21,35.94,86.16,10.84,14.82,24.95,30.25,37.34,42.04,6.19,5.9,11.95,10.88,16.69,14.44,2.37,1.78,4.49,3.21,6.34,4.23,1.86,1.02,3.34,1.75,5.17,1.75.91,0,2-.31,2.77-1.04.77-.73,1.11-1.67,1.24-2.49.26-1.64-.09-3.16-.61-4.98-1.04-3.64-3.11-8.32-5.62-13.64-5.01-10.64-11.77-23.73-15.2-33.56-6.84-19.53-1.29-31.77,4.28-39.77l-4.08-2.85c-6.11,8.76-12.24,23.28-4.9,44.26,3.65,10.43,10.46,23.53,15.4,34.03,2.47,5.25,4.47,9.87,5.34,12.89.26.91.23,1.2.28,1.72-.5-.16-.74-.17-1.66-.68-1.54-.85-3.51-2.16-5.76-3.86-4.51-3.38-10.16-8.26-16.24-14.06-12.18-11.6-26.16-26.89-36.75-41.37-20.97-28.66-24.55-56.22-32.77-82.96h0Z"/>
  <path class="st0" d="M29.2,107.17c0,1.61-.64,3.14-1.77,4.27s-2.67,1.77-4.27,1.77-3.14-.64-4.27-1.77c-1.13-1.13-1.77-2.67-1.77-4.27,0-3.34,2.7-6.04,6.04-6.04s6.04,2.7,6.04,6.04h0Z"/>
  <path class="st0" d="M149.76,110.28c0,1.6-.64,3.14-1.77,4.27s-2.67,1.77-4.27,1.77c-3.34,0-6.04-2.7-6.04-6.04s2.7-6.04,6.04-6.04c1.61,0,3.14.64,4.27,1.77,1.13,1.13,1.77,2.67,1.77,4.27h0Z"/>
  <path class="st0" d="M143.25,206.3c0,3.34-2.7,6.04-6.04,6.04s-6.04-2.7-6.04-6.04,2.7-6.04,6.04-6.04,6.04,2.7,6.04,6.04h0Z"/>
  <path class="st0" d="M68.39,185.55c0,1.6-.64,3.14-1.77,4.27-1.13,1.13-2.67,1.77-4.27,1.77-3.34,0-6.04-2.7-6.04-6.04s2.7-6.04,6.04-6.04c1.6,0,3.14.64,4.27,1.77s1.77,2.67,1.77,4.27h0Z"/>
  <path class="st0" d="M243.33,139.98c0,1.6-.64,3.14-1.77,4.27-1.13,1.13-2.67,1.77-4.27,1.77-3.34,0-6.04-2.7-6.04-6.04s2.7-6.04,6.04-6.04c1.6,0,3.14.64,4.27,1.77,1.13,1.13,1.77,2.67,1.77,4.27h0Z"/>
  <path class="st0" d="M214.45,199.38c0,1.61-.64,3.14-1.77,4.27-1.13,1.13-2.67,1.77-4.27,1.77-3.34,0-6.04-2.7-6.04-6.04s2.7-6.04,6.04-6.04c1.6,0,3.14.64,4.27,1.77,1.13,1.13,1.77,2.67,1.77,4.27h0Z"/>
  <path class="st0" d="M239.27,264.07c0,3.34-2.7,6.04-6.04,6.04s-6.04-2.7-6.04-6.04c0-1.6.64-3.14,1.77-4.27s2.67-1.77,4.27-1.77,3.14.64,4.27,1.77c1.13,1.13,1.77,2.67,1.77,4.27h0Z"/>
  <path class="st0" d="M174.58,322.25c0,3.34-2.7,6.04-6.04,6.04-1.6,0-3.14-.64-4.27-1.77-1.13-1.13-1.77-2.67-1.77-4.27s.64-3.14,1.77-4.27,2.67-1.77,4.27-1.77c3.34,0,6.04,2.7,6.04,6.04h0Z"/>
  <path class="st0" d="M347.48,253.9c0,1.6-.64,3.14-1.77,4.27s-2.67,1.77-4.27,1.77c-3.34,0-6.04-2.7-6.04-6.04s2.7-6.04,6.04-6.04c1.6,0,3.14.64,4.27,1.77s1.77,2.67,1.77,4.27h0Z"/>
  <path class="st0" d="M431.3,176.19c0,1.6-.64,3.14-1.77,4.27-1.13,1.13-2.67,1.77-4.27,1.77-3.34,0-6.04-2.7-6.04-6.04s2.7-6.04,6.04-6.04c1.6,0,3.14.64,4.27,1.77s1.77,2.67,1.77,4.27h0Z"/>
  <path class="st0" d="M351.15,148.12c0,3.34-2.7,6.04-6.04,6.04s-6.04-2.7-6.04-6.04c0-1.6.64-3.14,1.77-4.27,1.13-1.13,2.67-1.77,4.27-1.77s3.14.64,4.27,1.77c1.13,1.13,1.77,2.67,1.77,4.27h0Z"/>
  <path class="st0" d="M333.25,81.4c0,1.6-.64,3.14-1.77,4.27s-2.67,1.77-4.27,1.77c-3.34,0-6.04-2.7-6.04-6.04s2.7-6.04,6.04-6.04c1.6,0,3.14.64,4.27,1.77,1.13,1.13,1.77,2.67,1.77,4.27h0Z"/>
  <path class="st0" d="M252.29,60.24c0,3.34-2.7,6.04-6.04,6.04s-6.04-2.7-6.04-6.04c0-1.6.64-3.14,1.77-4.27s2.67-1.77,4.27-1.77,3.14.64,4.27,1.77c1.13,1.13,1.77,2.67,1.77,4.27h0Z"/>
  <path class="st0" d="M194.11,17.11c0,1.6-.64,3.14-1.77,4.27-1.13,1.13-2.67,1.77-4.27,1.77s-3.14-.64-4.27-1.77-1.77-2.67-1.77-4.27c0-3.34,2.7-6.04,6.04-6.04s6.04,2.7,6.04,6.04h0Z"/>
  <path class="st0" d="M452.46,270.17c0,3.34-2.7,6.04-6.04,6.04s-6.04-2.7-6.04-6.04c0-1.6.64-3.14,1.77-4.27s2.67-1.77,4.27-1.77,3.14.64,4.27,1.77,1.77,2.67,1.77,4.27h0Z"/>
  <path class="st0" d="M387.76,339.74c0,3.34-2.7,6.04-6.04,6.04s-6.04-2.7-6.04-6.04,2.7-6.04,6.04-6.04,6.04,2.7,6.04,6.04h0Z"/>
  <path class="st0" d="M306.81,323.87c0,3.34-2.7,6.04-6.04,6.04s-6.04-2.7-6.04-6.04,2.7-6.04,6.04-6.04,6.04,2.7,6.04,6.04h0Z"/>
  <path class="st0" d="M346.27,374.73c0,1.6-.64,3.14-1.77,4.27s-2.67,1.77-4.27,1.77c-3.34,0-6.04-2.7-6.04-6.04s2.7-6.04,6.04-6.04c1.6,0,3.14.64,4.27,1.77s1.77,2.67,1.77,4.27h0Z"/>
  <path class="st0" d="M365.8,425.18c0,3.34-2.7,6.04-6.04,6.04s-6.04-2.7-6.04-6.04,2.7-6.04,6.04-6.04,6.04,2.7,6.04,6.04h0Z"/>
  <path class="st0" d="M450.02,329.17c0,3.34-2.7,6.04-6.04,6.04-1.6,0-3.14-.64-4.27-1.77s-1.77-2.67-1.77-4.27.64-3.14,1.77-4.27,2.67-1.77,4.27-1.77c3.34,0,6.04,2.7,6.04,6.04h0Z"/>
  <path class="st0" d="M495.85,207.21c0,1.6-.64,3.14-1.77,4.27-1.13,1.13-2.67,1.77-4.27,1.77-3.34,0-6.04-2.7-6.04-6.04s2.7-6.04,6.04-6.04c1.6,0,3.14.64,4.27,1.77,1.13,1.13,1.77,2.67,1.77,4.27h0Z"/>
  <path class="st0" d="M423.57,76.51c0,3.34-2.7,6.04-6.04,6.04s-6.04-2.7-6.04-6.04,2.7-6.04,6.04-6.04,6.04,2.7,6.04,6.04h0Z"/>
  <path class="st0" d="M310.87,24.43c0,3.34-2.7,6.04-6.04,6.04s-6.04-2.7-6.04-6.04c0-1.6.64-3.14,1.77-4.27s2.67-1.77,4.27-1.77,3.14.64,4.27,1.77,1.77,2.67,1.77,4.27h0Z"/>
  <path class="st0" d="M305.99,191.65c0,1.6-.64,3.14-1.77,4.27-1.13,1.13-2.67,1.77-4.27,1.77s-3.14-.64-4.27-1.77-1.77-2.67-1.77-4.27c0-3.34,2.7-6.04,6.04-6.04s6.04,2.7,6.04,6.04h0Z"/>
  <path class="st0" d="M55.78,262.85c0,1.6-.64,3.14-1.77,4.27s-2.67,1.77-4.27,1.77-3.14-.64-4.27-1.77-1.77-2.67-1.77-4.27c0-3.34,2.7-6.04,6.04-6.04s6.04,2.7,6.04,6.04h0Z"/>
  <path class="st0" d="M113.14,63.9c0,1.6-.64,3.14-1.77,4.27-1.13,1.13-2.67,1.77-4.27,1.77-3.34,0-6.04-2.7-6.04-6.04s2.7-6.04,6.04-6.04c1.6,0,3.14.64,4.27,1.77s1.77,2.67,1.77,4.27h0Z"/>
  <path class="st0" d="M188.05,16.68c-.41.02-.57.54-.24.79l58.18,43.12c.14.11.33.11.49.02l58.59-35.8c.36-.22.23-.78-.2-.81l-116.77-7.33h-.05ZM189.5,17.64l113.93,7.14-57.16,34.93s-56.77-42.08-56.77-42.08Z"/>
  <path class="st0" d="M304.8,24c-.29.02-.48.32-.38.59l22.38,56.96c.07.17.24.28.43.27l90.32-4.88c.45-.02.57-.64.15-.83l-112.7-52.08c-.07-.03-.14-.04-.21-.04h0ZM305.63,25.29l110.13,50.89-88.26,4.77-21.87-55.66h0Z"/>
  <path class="st0" d="M304.83,24c-.08,0-.16.02-.23.06l-58.59,35.8c-.33.2-.26.7.12.8l80.96,21.16c.34.09.65-.25.52-.58l-22.38-56.96c-.07-.17-.23-.27-.4-.27h0ZM304.62,25.08l21.88,55.68-79.15-20.68s57.28-35,57.28-35Z"/>
  <path class="st0" d="M188.07,16.68c-.08,0-.15.02-.22.06l-80.96,46.79c-.23.13-.29.44-.13.65l36.62,46.38c.2.25.6.21.73-.08l44.35-93.17c.13-.28-.07-.62-.39-.62h0ZM187.07,18.19l-43.45,91.28-35.87-45.44s79.32-45.83,79.32-45.83Z"/>
  <path class="st0" d="M188.04,16.68c-.16,0-.3.11-.37.25l-44.35,93.17c-.18.37.22.76.58.57l102.53-50.04c.29-.14.33-.54.07-.74l-58.18-43.12c-.08-.06-.18-.09-.28-.09h0ZM188.23,17.78l57.18,42.39-100.77,49.18,43.58-91.57h0Z"/>
  <path class="st0" d="M246.24,59.81c-.06,0-.13.01-.18.04l-102.53,50.04c-.35.17-.31.68.06.81l93.57,29.7c.26.08.54-.09.56-.37l8.95-79.74c.03-.26-.18-.49-.44-.48h0ZM245.72,60.98l-8.8,78.43-92.04-29.21,100.84-49.22h0Z"/>
  <path class="st0" d="M417.5,76.08l-90.32,4.88c-.27.01-.47.28-.4.54l17.9,66.72c.09.32.49.43.72.2l72.42-71.6c.28-.28.07-.77-.33-.74h0ZM416.41,77.01l-71.07,70.28-17.57-65.48,88.64-4.8h0Z"/>
  <path class="st0" d="M246.22,59.81c-.21,0-.39.17-.41.39l-8.95,79.74c-.04.37.36.61.67.41l89.91-58.59c.32-.21.24-.69-.13-.78l-80.96-21.16s-.08-.01-.13-.01h0ZM246.62,60.79l79.53,20.78-88.32,57.55s8.79-78.33,8.79-78.33Z"/>
  <path class="st0" d="M107.1,63.46c-.07,0-.14.01-.2.05L22.96,106.78c-.4.2-.26.81.19.82l120.56,3.11c.37,0,.58-.41.35-.7l-36.62-46.38c-.08-.11-.21-.16-.34-.16h0ZM106.98,64.45l35.82,45.37-117.94-3.05,82.12-42.33h0Z"/>
  <path class="st0" d="M327.21,80.96c-.09,0-.17.02-.24.07l-89.92,58.59c-.35.23-.21.77.21.8l107.81,8.14c.3.02.53-.26.45-.54l-17.9-66.72c-.05-.19-.22-.32-.41-.32h0ZM326.94,82.09l17.59,65.55-105.92-8,88.33-57.56h0Z"/>
  <path class="st0" d="M417.52,76.08c-.11,0-.22.04-.3.13l-72.42,71.6c-.23.23-.14.61.16.72l80.15,28.07c.29.11.6-.13.58-.44l-7.73-99.68c-.02-.23-.21-.4-.44-.4h0ZM417.16,77.48l7.61,98.08-78.86-27.62,71.26-70.46h0Z"/>
  <path class="st0" d="M23.13,106.73c-.31.02-.5.35-.36.63l39.19,78.38c.13.26.47.32.68.13l81.37-75.27c.28-.27.11-.74-.28-.75l-120.56-3.11h-.04ZM23.87,107.62l118.77,3.07-80.16,74.15L23.87,107.62h0Z"/>
  <path class="st0" d="M237.28,139.55c-.4,0-.57.52-.27.77l62.66,51.67c.17.14.42.13.57-.02l45.16-43.53c.27-.26.11-.71-.27-.75l-107.81-8.14h-.04,0ZM238.62,140.52l105.48,7.96-44.18,42.59-61.3-50.55h0Z"/>
  <path class="st0" d="M143.72,109.85c-.35,0-.56.4-.35.69l64.69,89.1c.19.27.6.23.74-.07l28.89-59.4c.12-.24,0-.53-.26-.6l-93.57-29.7s-.09-.02-.13-.02h0ZM144.85,111.09l91.83,29.14-28.35,58.3-63.49-87.44h0Z"/>
  <path class="st0" d="M417.52,76.08c-.25,0-.44.22-.43.47l7.73,99.68c0,.14.1.28.23.35l61.79,33.32c.38.2.79-.2.59-.58l-69.52-133c-.08-.14-.23-.23-.39-.23h0ZM418.12,78.6l67.88,129.86-60.33-32.53-7.55-97.33Z"/>
  <path class="st0" d="M143.69,109.85c-.1,0-.19.05-.27.12l-81.37,75.27c-.25.23-.15.65.18.74l74.86,20.75c.27.07.53-.12.55-.39l6.51-96.02c.02-.26-.2-.48-.46-.46h0ZM143.21,111.34l-6.4,94.39-73.59-20.4,80-73.99h0Z"/>
  <path class="st0" d="M143.7,109.85c-.22.01-.4.19-.41.4l-6.51,96.01c-.02.27.21.49.48.46l71.2-6.92c.33-.03.51-.41.31-.69l-64.69-89.1c-.09-.12-.23-.19-.38-.18h0ZM144.07,111.51l63.54,87.52-69.94,6.8,6.4-94.31h0Z"/>
  <path class="st0" d="M237.29,139.55c-.16,0-.31.1-.39.24l-28.88,59.4c-.14.3.09.65.43.62l91.54-7.73c.39-.03.54-.52.24-.77l-62.66-51.67c-.08-.07-.18-.1-.28-.1h0ZM237.44,140.67l61.41,50.64-89.72,7.58,28.31-58.22h0Z"/>
  <path class="st0" d="M345.11,147.68c-.12,0-.22.04-.3.12l-45.16,43.53c-.15.14-.18.38-.06.55l41.5,62.25c.23.35.78.2.8-.23l3.66-105.78c0-.25-.19-.45-.43-.45h0ZM344.64,149.17l-3.58,103.36-40.55-60.82,44.13-42.54Z"/>
  <path class="st0" d="M345.08,147.68c-.23.01-.4.2-.4.42l-3.66,105.78c-.01.39.45.6.73.33l83.81-77.71c.24-.23.15-.62-.15-.73l-80.14-28.07c-.06-.02-.12-.03-.17-.02h0ZM345.52,148.72l78.91,27.64-82.52,76.51,3.61-104.15h0Z"/>
  <path class="st0" d="M299.91,191.22l-91.54,7.73c-.29.02-.48.32-.37.59l24.82,64.69c.12.3.51.38.72.14l66.72-72.42c.27-.29.04-.76-.36-.73h0ZM298.87,192.18l-65.49,71.08-24.36-63.5,89.85-7.59Z"/>
  <path class="st0" d="M425.25,175.76c-.27,0-.48.26-.42.53l21.16,93.98c.09.37.57.46.79.14l40.63-60.66c.14-.21.07-.5-.15-.62l-61.79-33.32c-.06-.03-.13-.05-.21-.05h0ZM425.89,177.02l60.53,32.64-39.8,59.43-20.73-92.07h0Z"/>
  <path class="st0" d="M62.34,185.11c-.21,0-.38.16-.41.37l-12.61,77.3c-.06.37.35.64.67.43l87.47-56.55c.31-.21.24-.68-.12-.78l-74.86-20.75s-.09-.01-.13-.01h0ZM62.7,186.1l73.46,20.36-85.84,55.49,12.38-75.85h0Z"/>
  <path class="st0" d="M425.28,175.76c-.12,0-.23.03-.32.12l-83.81,77.71c-.27.25-.13.69.23.75l104.97,16.27c.3.04.56-.23.49-.53l-21.16-93.98c-.04-.19-.21-.33-.4-.34h0ZM425,177.02l20.85,92.62-103.45-16.04,82.6-76.58h0Z"/>
  <path class="st0" d="M299.94,191.22c-.12,0-.23.05-.31.14l-66.72,72.42c-.27.29-.03.76.36.73l108.22-10.17c.33-.03.5-.4.32-.67l-41.5-62.25c-.08-.12-.22-.2-.37-.19h0ZM299.89,192.35l40.79,61.18-106.37,10,65.58-71.18h0Z"/>
  <path class="st0" d="M208.41,198.94h-.04l-71.2,6.92c-.41.04-.54.59-.18.81l96.02,57.77c.36.21.78-.14.63-.53l-24.82-64.69c-.06-.17-.22-.28-.4-.28h0ZM208.12,199.84l24.25,63.2-93.81-56.44,69.56-6.76Z"/>
  <path class="st0" d="M137.18,205.87c-.27.01-.47.28-.4.54l31.33,115.95c.08.31.47.42.71.21l64.69-58.18c.22-.2.18-.54-.07-.69l-96.01-57.77c-.08-.04-.16-.07-.25-.06h0ZM137.91,207.23l94.59,56.91-63.73,57.32-30.86-114.23h0Z"/>
  <path class="st0" d="M341.44,253.46h-.04l-108.22,10.17c-.38.03-.53.51-.25.76l67.53,59.81c.21.18.53.13.67-.11l40.68-69.98c.17-.29-.04-.66-.38-.66h0ZM340.64,254.41l-40,68.79-66.39-58.79,106.39-10Z"/>
  <path class="st0" d="M23.16,106.73c-.27,0-.48.24-.43.51l26.58,155.68c.08.48.78.48.86,0l12.61-77.3c.01-.09,0-.18-.04-.27L23.55,106.98c-.07-.15-.22-.24-.39-.24h0ZM24.08,109.98l37.82,75.64-12.17,74.6L24.08,109.98h0Z"/>
  <path class="st0" d="M341.43,253.46c-.31.01-.51.34-.38.62l40.27,85.85c.13.27.5.34.71.11l64.69-69.57c.24-.26.09-.67-.25-.72l-104.97-16.27s-.06,0-.09,0h0ZM342.18,254.45l103.35,16.02-63.69,68.5-39.66-84.52h0Z"/>
  <path class="st0" d="M446.42,269.74c-.12,0-.24.05-.32.14l-64.69,69.57c-.28.3-.01.79.39.72l62.25-10.58c.2-.03.35-.21.36-.41l2.44-58.99c0-.25-.18-.45-.43-.45h0ZM445.93,271.33l-2.38,57.46-60.64,10.31,63.02-67.78h0Z"/>
  <path class="st0" d="M341.46,253.46c-.16,0-.31.08-.39.22l-40.68,69.98c-.15.26,0,.59.29.65l80.96,15.87c.35.07.63-.29.48-.61l-40.28-85.84c-.07-.15-.22-.25-.38-.25h0ZM341.41,254.83l39.56,84.32-79.52-15.58,39.96-68.73h0Z"/>
  <path class="st0" d="M300.76,323.44c-.36,0-.56.42-.34.7l39.47,50.86c.15.19.43.23.62.07l41.5-34.99c.28-.24.16-.69-.2-.76l-80.96-15.86s-.06,0-.09,0h0ZM301.81,324.53l78.94,15.47-40.46,34.11-38.48-49.58h0Z"/>
  <path class="st0" d="M232.35,263.26c-.11,0-.22.04-.3.11l-64.69,58.18c-.29.27-.11.75.28.76l132.23,1.63c.4,0,.6-.49.29-.76l-67.54-59.81c-.08-.07-.17-.11-.28-.11h0ZM232.34,264.27l66.37,58.78-129.95-1.6,63.57-57.18h0Z"/>
  <path class="st0" d="M381.73,339.31c-.11,0-.21.03-.29.1l-41.5,34.99c-.14.12-.19.32-.13.49l19.53,50.45c.15.4.72.36.83-.05l21.97-85.44c.07-.27-.13-.54-.41-.54h0ZM380.96,340.95l-21.3,82.81-18.93-48.9,40.22-33.91h0Z"/>
</svg>