<svg id="brain-smooth" viewBox="0 0 1009.99 952.03">
            <g>
                <g>
                <path className="cls-4" d="m761.73,754.46c29.01.31,55.08-4.5,77.58-17.63,22.49-13.13,41.41-34.59,53.08-56.66,11.67-22.07,16.08-44.76,15.76-58.86-.31-14.1-5.36-19.62,5.36-24.53,10.72-4.9,37.21-9.2,56.45-32.8,19.23-23.6,31.22-66.53,31.85-99.02.63-32.5-10.09-54.57-19.87-68.06-9.77-13.49-18.6-18.39-18.54-29.25.07-10.85,8.77-27.16,7.82-46.16-.95-19.01-11.67-40.47-26.8-52.09-15.14-11.62-35.95-13.52-46.98-26.09-11.04-12.57-12.93-35.87-24.6-57.94-11.67-22.07-33.11-42.92-55.5-54.57-22.39-11.65-45.72-14.11-64.96-24.83-19.24-10.73-34.37-29.74-51.39-37.98-17.02-8.23-34.7-5.86-51.72-14.45-17.03-8.58-32.8-28.2-56.45-38.01-23.65-9.81-55.18-9.81-79.62-.18-24.44,9.64-42.41,29.61-64.18,30.52-21.76.92-47.62-16.86-80.41-17.47-32.79-.61-72.53,15.94-97.76,31.88-25.23,15.94-35.95,31.27-46.35,35.56-10.41,4.29-20.5-2.45-38.47-4.29-17.97-1.84-43.83,1.23-60.23,20.85-16.4,19.62-23.34,55.79-35.32,73.27-11.98,17.47-29.01,16.25-43.83,24.52-14.82,8.28-27.44,26.06-28.07,45.07-.63,19.01,10.72,39.24,11.98,54.26,1.27,15.02-7.57,24.83-13.88,48.13-6.31,23.3-10.09,60.09-7.88,85.53,2.21,25.45,10.41,39.55,29.65,56.72,19.23,17.17,49.51,37.4,86.09,43.23,36.58,5.82,79.47-2.76,99.34-5.21,19.87-2.45,16.71,1.23,11.98,21.46-4.73,20.24-11.03,57.02,1.58,87.37,12.61,30.35,44.15,54.26,83.25,62.84,39.1,8.59,85.77,1.84,112.58-6.44,26.8-8.28,33.74-18.09,47.62-20.85,13.88-2.76,34.69,1.54,54.55-1.84,19.87-3.38,38.79-14.41,48.25-23.3,9.46-8.89,9.46-15.64,15.14-10.73,5.68,4.9,17.03,21.46,29.64,39.55,12.62,18.09,26.49,37.71,49.41,50.23,22.92,12.52,54.87,17.93,83.88,18.24h0Z" />
                <path className="cls-4" d="m590.6,629.39c16.34,53.14,31.04,132.41,74.07,191.22,43.04,58.82,112.77,123.3,127.53,123.3s-25.44-64.48-39.69-105.14c-14.24-40.65-2.51-67.5,9.21-84.32" />
                </g>
            </g>
        </svg>